<?xml version="1.0" encoding="UTF-8"?>
<!-- X-T family: SLR-style black body. GPL. -->
<svg xmlns="http://www.w3.org/2000/svg" viewBox="0 0 128 88" width="256" height="176">
  <defs>
    <linearGradient id="bodyT" x1="0" y1="0" x2="0" y2="1">
      <stop offset="0" stop-color="#424951"/>
      <stop offset="1" stop-color="#2b3137"/>
    </linearGradient>
    <linearGradient id="dialT" x1="0" y1="0" x2="0" y2="1">
      <stop offset="0" stop-color="#7c848d"/>
      <stop offset="1" stop-color="#565e66"/>
    </linearGradient>
    <linearGradient id="leatherT" x1="0" y1="0" x2="0" y2="1">
      <stop offset="0" stop-color="#262b31"/>
      <stop offset="1" stop-color="#1c2126"/>
    </linearGradient>
    <linearGradient id="barrelT" x1="0" y1="0" x2="0" y2="1">
      <stop offset="0" stop-color="#40474f"/>
      <stop offset="1" stop-color="#20252b"/>
    </linearGradient>
    <radialGradient id="glassT" cx="0.38" cy="0.35" r="0.9">
      <stop offset="0" stop-color="#8fa9de"/>
      <stop offset="0.45" stop-color="#3d5f9e"/>
      <stop offset="1" stop-color="#101c33"/>
    </radialGradient>
  </defs>
  <rect x="6" y="25" width="5" height="7" rx="2" fill="#8f969e"/>
  <rect x="117" y="25" width="5" height="7" rx="2" fill="#8f969e"/>
  <path d="M 57 18 L 63 5 H 87 L 93 18 Z" fill="url(#bodyT)" stroke="#14171b" stroke-width="1.2"/>
  <rect x="37" y="9" width="18" height="11" rx="2" fill="url(#dialT)" stroke="#2a2f34" stroke-width="1"/>
  <rect x="95" y="9" width="18" height="11" rx="2" fill="url(#dialT)" stroke="#2a2f34" stroke-width="1"/>
  <rect x="14" y="13.5" width="14" height="6.5" rx="2" fill="url(#dialT)" stroke="#2a2f34" stroke-width="1"/>
  <rect x="10" y="18" width="108" height="66" rx="4" fill="url(#bodyT)" stroke="#14171b" stroke-width="1.2"/>
  <path d="M 94 20.5 H 113" stroke="#6b747d" stroke-width="1.4" stroke-linecap="round" stroke-opacity="0.7"/>
  <rect x="10" y="28" width="108" height="50" fill="url(#leatherT)"/>
  <circle cx="44" cy="28" r="2.4" fill="#dde6bf" stroke="#171a1e" stroke-width="0.8"/>
  <circle cx="75" cy="53" r="25" fill="url(#barrelT)" stroke="#14171b" stroke-width="1.2"/>
  <circle cx="75" cy="53" r="22.4" fill="none" stroke="#a9b0b7" stroke-width="1.8"/>
  <circle cx="75" cy="53" r="17" fill="#14171b"/>
  <circle cx="75" cy="53" r="12.8" fill="url(#glassT)"/>
  <circle cx="69.8" cy="47.8" r="2.8" fill="#ffffff" fill-opacity="0.65"/>
  <circle cx="75" cy="30.8" r="1.8" fill="#e0442e"/>
</svg>
