<?xml version="1.0" encoding="UTF-8"?>
<!-- X100 family: fixed-lens rangefinder in the classic silver/black two-tone. GPL. -->
<svg xmlns="http://www.w3.org/2000/svg" viewBox="0 0 128 88" width="256" height="176">
  <defs>
    <linearGradient id="silver" x1="0" y1="0" x2="0" y2="1">
      <stop offset="0" stop-color="#eef0f2"/>
      <stop offset="0.55" stop-color="#cfd4d9"/>
      <stop offset="1" stop-color="#b7bdc4"/>
    </linearGradient>
    <linearGradient id="dial" x1="0" y1="0" x2="0" y2="1">
      <stop offset="0" stop-color="#dde1e5"/>
      <stop offset="1" stop-color="#a9b0b7"/>
    </linearGradient>
    <linearGradient id="leather" x1="0" y1="0" x2="0" y2="1">
      <stop offset="0" stop-color="#31373d"/>
      <stop offset="1" stop-color="#22272c"/>
    </linearGradient>
    <radialGradient id="glass" cx="0.38" cy="0.35" r="0.9">
      <stop offset="0" stop-color="#8fa9de"/>
      <stop offset="0.45" stop-color="#3d5f9e"/>
      <stop offset="1" stop-color="#101c33"/>
    </radialGradient>
  </defs>
  <rect x="6" y="29" width="5" height="7" rx="2" fill="#8f969e"/>
  <rect x="117" y="29" width="5" height="7" rx="2" fill="#8f969e"/>
  <rect x="16" y="18.5" width="15" height="9.5" rx="2" fill="url(#dial)" stroke="#7c848c" stroke-width="1"/>
  <rect x="35" y="20.5" width="9" height="7.5" rx="2" fill="url(#dial)" stroke="#7c848c" stroke-width="1"/>
  <path d="M 10 29 Q 10 27 12 27 H 44 C 50 27 52 20 58 20 H 116 Q 118 20 118 22 V 80 A 4 4 0 0 1 114 84 H 14 A 4 4 0 0 1 10 80 Z"
        fill="url(#silver)" stroke="#8f969e" stroke-width="1.2"/>
  <rect x="10" y="37" width="108" height="39" fill="url(#leather)"/>
  <rect x="69" y="27" width="14" height="6" rx="1.5" fill="#eef1f4" stroke="#8f969e" stroke-width="1.2"/>
  <path d="M 73 28.3 V 31.7 M 76 28.3 V 31.7 M 79 28.3 V 31.7" stroke="#9aa1a9" stroke-opacity="0.6" stroke-width="1.2" stroke-linecap="round"/>
  <circle cx="61" cy="29.8" r="2.4" fill="#dde6bf" stroke="#7c848c" stroke-width="0.8"/>
  <rect x="93" y="23" width="20" height="11.5" rx="2" fill="#10151d" stroke="#8f969e" stroke-width="1.2"/>
  <path d="M 97 32 L 104 24.5" stroke="#ffffff" stroke-opacity="0.3" stroke-width="2" stroke-linecap="round"/>
  <rect x="43.4" y="32" width="3.2" height="12" rx="1.5" fill="url(#dial)" stroke="#7c848c" stroke-width="0.8"/>
  <circle cx="45" cy="44" r="3.4" fill="url(#dial)" stroke="#7c848c" stroke-width="0.8"/>
  <circle cx="76" cy="57" r="21" fill="url(#silver)" stroke="#8f969e" stroke-width="1.2"/>
  <circle cx="76" cy="57" r="15.5" fill="#1e2227"/>
  <circle cx="76" cy="57" r="11" fill="url(#glass)"/>
  <circle cx="71.8" cy="52.8" r="2.6" fill="#ffffff" fill-opacity="0.65"/>
</svg>
